<?xml version="1.0" encoding="UTF-8" standalone="no"?>
<!-- Created with Inkscape (http://www.inkscape.org/) -->

<svg
   xmlns:dc="http://purl.org/dc/elements/1.1/"
   xmlns:cc="http://creativecommons.org/ns#"
   xmlns:rdf="http://www.w3.org/1999/02/22-rdf-syntax-ns#"
   xmlns:svg="http://www.w3.org/2000/svg"
   xmlns="http://www.w3.org/2000/svg"
   xmlns:sodipodi="http://sodipodi.sourceforge.net/DTD/sodipodi-0.dtd"
   xmlns:inkscape="http://www.inkscape.org/namespaces/inkscape"
   width="48"
   height="48"
   id="svg3613"
   version="1.1"
   inkscape:version="0.91 r"
   sodipodi:docname="redmine_d7.svg"
   inkscape:export-filename="/media/Datos/Imagenes/Logos/D7/redmine_d7.svg.png"
   inkscape:export-xdpi="29.726648"
   inkscape:export-ydpi="29.726648">
  <defs
     id="defs3615">
    <clipPath
       id="clipPath18"
       clipPathUnits="userSpaceOnUse">
      <path
         inkscape:connector-curvature="0"
         id="path20"
         d="m 0,0 4145.66,0 0,955 L 0,955 0,0 z" />
    </clipPath>
  </defs>
  <sodipodi:namedview
     id="base"
     pagecolor="#001860"
     bordercolor="#666666"
     borderopacity="1.0"
     inkscape:pageopacity="0"
     inkscape:pageshadow="2"
     inkscape:zoom="5.6811594"
     inkscape:cx="1.2991574"
     inkscape:cy="18.977228"
     inkscape:document-units="px"
     inkscape:current-layer="layer1"
     showgrid="false"
     inkscape:window-width="1366"
     inkscape:window-height="709"
     inkscape:window-x="0"
     inkscape:window-y="30"
     inkscape:window-maximized="1"
     inkscape:snap-text-baseline="true" />
  <metadata
     id="metadata3618">
    <rdf:RDF>
      <cc:Work
         rdf:about="">
        <dc:format>image/svg+xml</dc:format>
        <dc:type
           rdf:resource="http://purl.org/dc/dcmitype/StillImage" />
        <dc:title></dc:title>
      </cc:Work>
    </rdf:RDF>
  </metadata>
  <g
     inkscape:label="Capa 1"
     inkscape:groupmode="layer"
     id="layer1"
     transform="translate(0,-1004.3622)">
    <g
       transform="matrix(0,0.52264105,0.75930585,0,-2.6045496,1001.3324)"
       inkscape:label="ink_ext_XXXXXX"
       id="g10">
      <g
         id="g14"
         transform="matrix(0.09918988,0,0,0.09918988,5.6570016,-28.49924)">
        <path
           inkscape:connector-curvature="0"
           id="path22"
           style="fill:#ffffff;fill-opacity:1;fill-rule:nonzero;stroke:none"
           d="M 276.648,896.871 366.293,792.48 c 3.844,-4.964 -1.25,-8.636 -1.25,-8.636 -35.922,-19.375 -61.914,-48.653 -84.148,-82.18 -4.415,-6.652 -9.176,-1.82 -9.176,-1.82 l -113.59,85.062 c 0,0 -4.883,2.871 -0.609,8.547 33.261,44.168 63.476,75.317 111.789,104.723 0,0 3.66,3.449 7.339,-1.305" />
        <path
           inkscape:connector-curvature="0"
           id="path24"
           style="fill:#ffffff;fill-opacity:1;fill-rule:nonzero;stroke:none"
           d="m 117.633,726.809 134.246,-64.895 c 6.379,-2.473 3.187,-8.281 3.187,-8.281 -18.546,-44.137 -29.847,-81.399 -38.566,-126.547 -1.461,-7.559 -6.59,-5.137 -6.59,-5.137 L 58.9062,587.516 c 0,0 -4.5273,1.695 -2.6367,7.511 6.7032,20.657 40.8594,103.118 54.5705,130.067 0,0 2.402,4.086 6.793,1.715" />
        <path
           inkscape:connector-curvature="0"
           id="path26"
           style="fill:#ffffff;fill-opacity:1;fill-rule:nonzero;stroke:none"
           d="m 42.5195,518.344 c 30.7071,-9.457 159.5545,-39.133 159.5545,-39.133 7.723,-2.379 5.422,-8.172 5.422,-8.172 -8.891,-70 -6.961,-123.422 -6.961,-141.879 0,-8.183 -5.957,-6.98 -5.957,-6.98 -33.449,0 -188.03112,0 -188.03112,0 -8.17188,0 -6.378911,7.363 -6.378911,7.363 1.535151,23.316 8.257811,89.668 34.183631,184.793 0,0 1.289,6.129 8.1679,4.008" />
        <path
           inkscape:connector-curvature="0"
           id="path28"
           style="fill:#ffffff;fill-opacity:1;fill-rule:nonzero;stroke:none"
           d="M 657.777,896.871 568.137,792.48 c -3.844,-4.964 1.25,-8.636 1.25,-8.636 35.922,-19.375 61.914,-48.653 84.148,-82.18 4.414,-6.652 9.176,-1.82 9.176,-1.82 l 113.59,85.062 c 0,0 4.883,2.871 0.609,8.547 -33.262,44.168 -63.476,75.317 -111.789,104.723 0,0 -3.66,3.449 -7.344,-1.305" />
        <path
           inkscape:connector-curvature="0"
           id="path30"
           style="fill:#ffffff;fill-opacity:1;fill-rule:nonzero;stroke:none"
           d="m 467.219,807.52 c 15.086,0 43.023,-1.442 56.211,-3.629 6.886,-1.141 8.59,3.41 8.59,3.41 l 56.425,117.914 c 0,0 3.778,4.437 -4.125,7.328 -42.117,15.41 -64.519,22.5 -117.101,22.5 -51.961,0 -74.992,-7.09 -117.114,-22.5 -7.898,-2.891 -4.125,-7.328 -4.125,-7.328 l 56.426,-117.914 c 0,0 1.703,-4.551 8.594,-3.41 13.184,2.187 41.125,3.629 56.219,3.629" />
        <path
           inkscape:connector-curvature="0"
           id="path32"
           style="fill:#ffffff;fill-opacity:1;fill-rule:nonzero;stroke:none"
           d="M 816.797,726.809 682.551,661.914 c -6.379,-2.473 -3.192,-8.281 -3.192,-8.281 18.551,-44.137 29.852,-81.399 38.571,-126.547 1.461,-7.559 6.586,-5.137 6.586,-5.137 l 151.007,65.567 c 0,0 4.528,1.695 2.637,7.511 -6.707,20.657 -40.859,103.118 -54.57,130.067 0,0 -2.402,4.086 -6.793,1.715" />
        <path
           inkscape:connector-curvature="0"
           id="path34"
           style="fill:#ffffff;fill-opacity:1;fill-rule:nonzero;stroke:none"
           d="m 891.91,518.344 c -30.711,-9.457 -159.555,-39.133 -159.555,-39.133 -7.722,-2.379 -5.421,-8.172 -5.421,-8.172 8.89,-70 6.957,-123.422 6.957,-141.879 0,-8.183 5.957,-6.98 5.957,-6.98 33.453,0 188.035,0 188.035,0 8.172,0 6.379,7.363 6.379,7.363 -1.535,23.316 -8.262,89.668 -34.184,184.793 0,0 -1.289,6.129 -8.168,4.008" />
      </g>
    </g>
    <rect
       style="fill:none;stroke:none"
       id="rect3265"
       width="39.278328"
       height="39.278328"
       x="0"
       y="1013.0839" />
    <rect
       y="1037.9601"
       x="0"
       height="14.402053"
       width="14.402053"
       id="rect4147"
       style="fill:none;stroke:none" />
    <rect
       y="1013.0839"
       x="19.147217"
       height="28.852783"
       width="28.852783"
       id="rect4149"
       style="fill:none;stroke:none" />
    <text
       xml:space="preserve"
       style="font-style:normal;font-weight:normal;font-size:32.80516815px;line-height:125%;font-family:Sans;letter-spacing:0px;word-spacing:0px;fill:#ffffff;fill-opacity:0.94117647;stroke:none"
       x="6.3059521"
       y="1079.7522"
       id="text2995"
       sodipodi:linespacing="125%"
       transform="scale(1.0374207,0.96392907)"><tspan
         sodipodi:role="line"
         id="tspan2997"
         x="6.3059521"
         y="1079.7522">7</tspan></text>
  </g>
</svg>
